PathFileType	4	(X/Y/Z)	C:/Users/beibeiliu/ov580/test_trc\sequence.16_training_dense_right.trc
DataRate	CameraRate	NumFrames	NumMarkers	Units	OrigDataRate	OrigDataStartFrame	OrigNumFrames
120	120	23	19	mm	120	30	88
Frame#	Time	ThumbCMC			ThumbMCP			ThumbIP			ThumbTip			IndexMCP			IndexPIP			IndexTip			MiddleMCP			MiddlePIP			MiddleTip			RingMCP			RingPIP			RingTip			PinkyMCP			PinkyPIP			PinkyTip			BackHand1			BackHand2			BackHand3	
		X0	Y0	Z0	X1	Y1	Z1	X2	Y2	Z2	X3	Y3	Z3	X4	Y4	Z4	X5	Y5	Z5	X6	Y6	Z6	X7	Y7	Z7	X8	Y8	Z8	X9	Y9	Z9	X10	Y10	Z10	X11	Y11	Z11	X12	Y12	Z12	X13	Y13	Z13	X14	Y14	Z14	X15	Y15	Z15	X16	Y16	Z16	X17	Y17	Z17	X18	Y18	Z18	
29	0.241667	145.69	86.9838	6.73402	130.405	109.674	10.4933	118.614	131.166	5.38586	107.222	146.107	1.78344	90.2525	79.2619	-36.6702	75.438	84.8577	-46.6291	55.4578	91.2152	-56.1056	79.5925	54.5213	-29.7635	56.2142	54.5712	-36.9965	30.5086	58.2961	-45.2302	78.6203	40.3121	-10.2603	54.0502	39.8001	-16.514	33.4795	41.1095	-19.7554	81.0932	30.0062	13.4441	61.6583	27.4311	19.6234	47.6842	22.6398	23.5404	120.989	39.0435	-2.50976	146.262	33.5064	9.51343	142.737	61.8439	-8.17835	
30	0.25	147.592	85.3508	5.5283	140.791	110.892	8.72666	135.565	130.4	6.68244	130.75	147.734	4.12068	98.8694	91.6434	-37.2015	78.7667	98.5378	-48.391	64.5228	109.382	-58.7242	77.1472	70.5435	-29.0784	53.6103	76.5677	-39.1773	30.288	84.5483	-44.4952	68.7084	57.2576	-11.3269	48.2193	64.5312	-17.639	24.6307	69.9027	-17.7675	68.2647	49.0357	13.0852	50.2281	54.4438	17.1023	34.9446	54.4252	21.7238	110.646	43.3604	0.567081	131.63	35.0288	10.8193	137.228	57.6593	-7.18806	
31	0.258333	147.503	81.3663	5.28926	145.545	111.213	5.75387	146.735	129.646	2.2054	148.387	150.516	-1.57691	101.274	92.6062	-38.7227	87.236	107.086	-56.1464	72.4306	120.026	-67.1978	75.932	79.7798	-34.2048	55.8952	89.1241	-44.0051	34.7602	105.01	-54.7007	65.0179	73.1015	-16.1075	44.9486	82.3977	-21.2756	30.6726	93.7192	-26.6321	61.733	64.1923	11.957	46.5372	74.4043	12.7873	28.7326	82.3162	13.9803	102.805	51.3261	-1.20723	123.565	36.1437	10.7122	128.302	55.9277	-6.32775	
32	0.266667	146.9	80.0233	4.69032	147.128	110.63	1.59457	152.258	129.917	-5.42554	154.468	148.213	-9.79682	103.585	93.6272	-43.8883	94.2063	110.272	-65.673	84.5205	122.637	-76.4491	78.4643	85.445	-37.8021	59.9953	98.3112	-55.1945	38.492	111.318	-63.7639	63.5919	81.5128	-20.8725	46.3897	93.9266	-30.7464	28.3517	107.995	-35.8615	57.2415	76.8013	4.43662	41.5227	88.0813	8.25253	24.8662	103.241	5.20249	93.5418	54.1203	-1.11488	107.269	41.2594	14.1126	119.368	58.4032	-8.61379	
33	0.275	137.639	83.1058	4.12836	143.657	108.521	1.14164	149.8	127.726	-7.83141	156.729	145.906	-18.0714	102.556	95.4519	-52.7201	94.3058	105.709	-69.9209	83.4344	118.494	-85.0525	72.7898	87.7723	-40.535	58.2785	98.725	-61.6986	42.9341	112.543	-75.1951	55.8688	88.6031	-27.5431	41.769	99.953	-38.2811	28.5756	113.667	-44.4494	48.2254	88.0615	-1.2103	35.6694	99.8459	-1.58391	18.3869	113.935	-4.46045	86.0808	59.9194	-3.04246	98.5923	49.2925	12.8037	116.899	61.7413	-6.30993	
34	0.283333	128.708	87.5672	2.41107	138.155	112.952	-5.2355	142.253	127.121	-13.2914	155.395	143.443	-25.2444	94.6024	93.3361	-52.6799	92.5417	103.483	-78.0168	85.2338	112.918	-92.2519	71.3496	90.2885	-51.0797	57.5089	98.3833	-67.215	40.6682	113.388	-85.1992	55.2026	92.4596	-33.1896	41.1937	103.161	-44.9463	29.2598	119.325	-61.0641	43.56	96.7549	-7.64042	30.9743	110.147	-10.4916	18.5884	122.155	-18.6956	77.6221	68.0503	0.434945	90.6894	56.6978	18.4505	106.708	66.1569	-6.60826	
35	0.291667	125.761	88.0251	5.67421	134.75	113.985	-10.0565	144.702	126.501	-20.0958	150.396	139.611	-32.2431	98.3546	87.2328	-58.4534	90.7247	94.3609	-76.3315	89.762	102.364	-97.3375	68.8788	85.9856	-54.1616	57.4036	93.1039	-73.583	42.9491	104.523	-91.1246	52.9151	91.9944	-35.0909	42.9461	102.503	-57.1183	30.0203	115.505	-71.0665	40.4273	101.197	-16.5138	33.1344	111.547	-21.7923	19.4868	125.536	-31.564	76.151	70.4123	-2.18833	84.8703	62.211	22.8096	100.265	66.1936	-2.45366	
36	0.3	124.554	88.7311	2.88467	132.903	110.451	-9.44305	145.625	122.267	-29.0243	154.75	131.988	-38.8886	97.4392	77.4791	-56.1071	98.1609	80.8021	-78.6347	92.4266	87.7613	-98.0581	75.2943	77.841	-55.9887	63.616	82.626	-75.4716	54.0889	90.9327	-101.214	57.2628	86.7981	-39.6477	46.2458	94.7773	-62.9522	39.0007	104.364	-80.5893	43.7038	99.2703	-18.495	30.2213	111.996	-33.1364	24.1949	116.696	-43.7449	74.9854	73.8048	-0.704262	81.8374	67.1279	19.9905	100.719	65.9999	3.63071	
37	0.308333	125.134	88.8867	9.25902	136.33	107.407	-10.2608	149.049	115.681	-31.3303	158.032	123.398	-43.5796	103.475	67.4943	-51.0726	101.157	66.3122	-74.0565	104.642	68.3552	-98.0034	78.1271	66.7896	-52.6136	68.1279	68.4923	-75.3341	60.4592	74.1509	-100.916	61.1205	77.3217	-40.2399	52.8501	81.1514	-66.1357	49.3091	85.7868	-83.7697	45.159	95.1012	-24.4915	35.1618	102.707	-40.6043	27.4003	106.574	-56.2004	74.8625	71.2534	2.95432	77.783	70.0088	24.2062	100.66	65.1058	3.567	
38	0.316667	128.871	88.242	12.6805	137.889	102.924	-10.5717	150.444	107.297	-31.5374	159.697	113.783	-42.6284	110.202	54.4774	-47.5246	111.923	50.3399	-69.2894	111.442	50.5695	-92.3264	83.2137	55.3669	-45.3694	80.6165	50.6467	-69.8602	75.0104	51.0056	-97.9642	68.4431	64.7197	-41.5482	60.4494	64.0469	-59.9359	59.1073	65.1729	-82.6516	52.0134	83.5306	-25.0528	42.4374	87.982	-38.9303	35.0513	87.8323	-56.6747	79.3123	70.0957	6.03035	83.5119	71.4523	27.6125	103.676	62.4172	11.79	
39	0.325	136.457	89.5016	16.0083	142.064	97.978	-12.7418	151.148	100.301	-31.0605	162.095	106.212	-42.9938	123.749	46.2785	-32.0047	126.495	36.1503	-54.5667	128.064	31.7148	-78.5952	98.9998	39.2776	-38.3336	93.0646	31.7966	-62.7421	88.3302	29.107	-88.3354	76.0524	49.7584	-35.2887	74.1722	44.2562	-56.1119	72.6461	42.8791	-78.746	61.2481	66.3137	-24.9702	49.6565	67.2862	-40.4489	41.4128	64.5206	-57.5016	83.0384	63.8072	10.7105	85.3885	73.191	34.9193	112.217	60.8261	19.5937	
40	0.333333	140.139	91.5541	17.6769	146.134	100.897	-7.19946	158.714	103.659	-25.1462	168.67	105.487	-41.1138	140.396	41.3151	-22.3294	142.788	29.8014	-44.0209	147.922	22.5526	-69.3437	113.493	32.1176	-27.8942	116.523	21.541	-49.1038	114.757	12.4394	-76.5113	92.1535	40.3638	-25.9797	93.9223	29.4653	-48.7263	92.1068	24.571	-68.8797	70.11	53.3071	-20.6939	62.4921	48.5669	-37.6603	55.8746	41.8382	-52.4746	96.0741	57.9332	14.3018	92.9331	68.6207	37.7324	118.178	63.9625	25.1512	
41	0.341667	141.287	97.5917	21.6143	149.893	109.15	-1.42149	162.545	109.968	-21.7992	175.567	116.518	-37.9174	161.962	47.2339	-14.4431	169.634	35.129	-35.3322	178.082	30.3425	-55.3103	141.483	29.5691	-22.2356	143.757	17.3502	-42.6884	146.842	8.25572	-69.024	116.707	30.9828	-24.1273	122.748	22.6549	-41.2688	124.148	15.4705	-66.5022	90.2695	41.7304	-17.4809	88.6614	31.1962	-38.4336	82.3328	24.0481	-49.8418	108.438	53.5073	19.3381	102.489	65.2586	35.4277	131.945	67.828	30.2824	
42	0.35	142.218	103.852	23.6615	147.635	117.45	0.960039	162.968	126.177	-17.2854	174.736	135.91	-31.8553	180.977	61.2837	-11.7054	192.655	56.0684	-27.6712	204.445	54.19	-47.96	166.954	39.6522	-17.2368	176.603	30.6991	-33.9202	187.576	24.0335	-59.5113	147.432	38.0887	-19.6409	156.216	27.4633	-39.6035	164.177	24.666	-57.1545	116.326	35.6572	-18.6113	117.738	26.6518	-34.1422	120.037	15.5971	-51.235	126.251	53.4828	19.8396	114.357	60.6926	35.38	143.688	72.2956	30.4407	
43	0.358333	139.469	112.422	27.0867	140.584	123.236	2.39816	149.409	137.728	-12.0588	156.229	150.23	-24.9337	191.407	88.5744	-2.57788	213.601	93.4286	-21.6969	223.401	96.5603	-38.1405	188.299	67.0044	-9.83629	209.206	64.6922	-28.1093	221.35	62.8667	-49.6838	173.788	52.6869	-14.442	190.609	49.0265	-36.4372	197.207	46.5072	-54.2603	149.384	38.2407	-19.654	157.482	34.4401	-35.236	162.853	25.7363	-50.8736	145.98	58.3502	20.7186	131.828	58.5721	36.5294	149.034	78.3048	34.8834	
44	0.366667	134.959	111.076	25.7249	129.453	124.112	4.15194	131.191	141.173	-10.242	131.829	157.837	-22.2402	194.684	120.238	0.79592	206.704	130.383	-13.2051	218.979	136.542	-33.8189	199.947	97.5644	-7.40453	218.055	100.511	-25.5424	231.907	107.705	-45.6996	192.851	76.7915	-15.176	208.751	81.4402	-32.8189	216.612	83.5169	-50.2379	174.846	58.9104	-18.4472	183.84	53.239	-35.9807	195.397	52.8354	-48.9137	165.638	68.1673	19.8687	143.966	61.054	37.4241	155.328	89.3778	38.1239	
45	0.375	127.321	112.379	28.2205	116.869	126.148	4.82739	110.779	143.184	-7.85367	104.221	158.017	-19.6022	177.061	140.974	3.86067	184.334	160.944	-10.8392	192.993	175.507	-29.6851	191.604	127.972	-4.88448	204.933	140.049	-19.8021	218.5	150.566	-42.3095	189.964	106.081	-11.6684	205.765	117.342	-31.2607	214.655	125.221	-47.0235	186.757	79.2101	-20.2557	193.233	84.0111	-32.666	207.16	80.4664	-48.095	169.481	86.5273	20.9455	158.692	67.6847	37.8835	156.771	104.282	38.4788	
46	0.383333	118.521	112.22	29.9	105.975	119.168	7.63928	91.8291	134.672	-7.42915	83.8112	141.422	-16.9993	152.24	158.794	4.11277	156.965	176.739	-11.7268	158.549	195.183	-30.3815	174.472	148.133	-6.58553	182.523	167.472	-22.1125	190.21	181.639	-41.7423	180.746	129.458	-12.8421	190.093	146.023	-31.7811	195.282	157.643	-47.8761	188.865	102.49	-22.9232	195.362	108.808	-39.6008	202.921	117.583	-49.2371	174.007	102.121	14.5467	169.22	85.1999	33.7719	154.804	111.536	36.0549	
47	0.391667	117.531	104.85	29.5978	95.0755	108.947	8.80773	78.9876	116.455	-3.17643	68.2846	123.948	-17.9339	127.285	160.718	1.43943	126.856	181.651	-15.5549	117.196	197.3	-27.9818	155.009	160.158	-12.5828	154.43	182.321	-28.234	154.121	200.293	-45.5357	166.075	143.005	-18.0689	170.6	161.798	-38.3463	168.762	173.899	-51.3366	178.973	121.898	-26.5825	180.716	132.01	-40.7695	188.688	141.377	-51.8424	169.46	114.991	13.9393	168.05	97.6317	33.8653	146.692	116.964	34.9999	
48	0.4	109.321	100.959	25.6427	89.3545	95.4968	7.90687	70.3874	98.8713	-6.9316	58.039	98.0602	-15.9111	105.006	160.219	-9.55116	93.8858	172.249	-18.8406	86.4485	185.753	-36.0854	131.347	162.682	-20.6723	124.074	181.276	-34.3278	119.892	199.097	-53.1892	145.818	151.507	-25.0815	145.931	165.5	-41.9469	143.317	180.877	-63.3959	165.954	131.245	-31.2263	170.301	139.595	-47.1348	170.35	152.557	-58.1517	158.005	123.589	8.38756	163.961	112.108	26.3812	135.555	122.979	28.31	
49	0.408333	102.345	98.6614	19.7682	81.1339	87.1439	1.48317	65.887	80.3785	-6.76745	50.5961	76.9125	-19.7306	84.7483	146.693	-17.5886	67.8374	160.727	-34.1219	54.8412	169.646	-50.0142	104.906	155.228	-25.3619	98.959	176.263	-46.949	90.2755	188.095	-62.9326	128.684	152.491	-34.3588	120.573	165.312	-49.45	116.959	178.251	-70.2712	147.528	138.051	-35.2644	152.786	145.35	-52.58	152.198	157.765	-62.0188	140.892	132.583	1.47755	147.462	120.786	21.7115	120.702	126.155	22.7293	
50	0.416667	87.9442	93.1538	15.9619	75.8194	74.2988	2.17155	63.5349	65.5792	-9.42948	48.3616	55.9118	-21.9806	63.4414	133.953	-27.0822	47.9879	140.511	-44.2959	36.371	144.102	-62.0695	83.0114	150.087	-38.1615	74.1774	160.045	-54.7136	70.2535	173.2	-77.7946	110.818	149.437	-40.9716	104.01	158.958	-58.443	99.9754	169.779	-80.149	132.832	141.347	-40.4083	132.847	149.869	-55.6776	140.578	159.781	-67.1363	118.063	136.317	-4.25916	128.168	130.495	18.9993	103.526	125.252	16.3802	
51	0.425	79.5267	87.3931	16.6277	73.8176	67.561	-2.55798	67.2685	53.6901	-12.8698	56.3001	39.199	-23.7893	58.0364	116.811	-38.7144	45.7952	116.68	-58.8347	31.5369	113.15	-79.3728	74.9819	134	-46.4256	65.3496	141.341	-68.1747	56.4921	148.521	-94.5839	100.911	141.625	-46.7123	91.8437	148.645	-70.3747	92.5746	156.594	-89.5824	122.331	141.049	-43.2075	128.404	145.872	-54.713	129.801	160.859	-70.1593	102.375	135.53	-8.60581	112.344	135.463	16.9532	83.4659	122.936	10.7259	
